<svg height="256" viewBox="0 0 256 256" width="256" xmlns="http://www.w3.org/2000/svg"><g fill="none" fill-rule="evenodd"><circle cx="128" cy="128" fill="#01d586" r="128"/><g fill="#fff" transform="translate(50 61)"><path d="m94.1186662 0c-33.1507338 0-60.1186662 27.141195-60.1186662 60.506721s26.9679324 60.505911 60.1186662 60.505911 60.1186658-27.1411953 60.1186658-60.5067213c0-33.3655261-26.967127-60.5059107-60.1186658-60.5059107zm37.2878928 82.6602762 33.593441 32.4891928-19.140887 19.850531-35.562525-34.393552c-4.882986 1.935936-10.200534 3.000257-15.7604311 3.000257-23.7023315 0-43.0015459-19.3433941-43.0015459-43.0999851s19.2992144-43.1007934 43.0015459-43.1007934c23.7023311 0 43.0015461 19.3433943 43.0015461 43.0999853 0 8.0937826-2.240043 15.6754018-6.131144 22.1543644z" fill-rule="nonzero"/><path d="m21 45v73h-19v-73z"/><path d="m12.2517483 9c6.3776223 0 11.7482517 5.2571429 11.7482517 11.5 0 6.4071429-5.3706294 11.5-11.9160839 11.5-6.71328673 0-12.0839161-5.0928571-12.0839161-11.6642857 0-6.2428572 5.37062937-11.3357143 12.2517483-11.3357143z"/></g></g></svg>