<svg height="32" viewBox="0 0 32 32" width="32" xmlns="http://www.w3.org/2000/svg"><g fill="none" fill-rule="evenodd"><circle cx="16" cy="16" fill="#01d586" r="16"/><g fill="#fff" transform="translate(6 7)"><path d="m12.4246993 0c-4.3822069 0-7.94710715 3.58246076-7.94710715 7.98649264 0 4.40403186 3.56490025 7.98638566 7.94710715 7.98638566s7.9471071-3.5824607 7.9471071-7.98649262c0-4.40403188-3.5647938-7.98638568-7.9471071-7.98638568zm4.9290994 10.9106175 4.4407285 4.2883616-2.5302404 2.6201406-4.7010225-4.5397246c-.6454835.255531-1.348412.3960144-2.0833768.3960144-3.13321931 0-5.6843891-2.5532019-5.6843891-5.68891701s2.55116979-5.68902369 5.6843891-5.68902369c3.1332194 0 5.6843892 2.55320192 5.6843892 5.68891702 0 1.06832654-.296112 2.06905088-.810478 2.92423168z" fill-rule="nonzero"/><path d="m2.80031822 6.00663082v9.60627238h-2.49403341v-9.60627238z"/><path d="m1.59705648 1.21433692c.83134447 0 1.53142403.69390681 1.53142403 1.51792114 0 .84569893-.70007956 1.51792115-1.55330151 1.51792115-.87509945 0-1.575179-.67222222-1.575179-1.53960573 0-.82401434.70007955-1.49623656 1.59705648-1.49623656z"/></g></g></svg>