<svg height="50" viewBox="0 0 50 50" width="50" xmlns="http://www.w3.org/2000/svg"><g fill="none" fill-rule="evenodd"><circle cx="25" cy="25" fill="#f2f2f2" r="25"/><g transform="translate(13 13)"><path d="m19 2h-14c-1.11 0-2 .9-2 2v14c0 1.1.89 2 2 2h4l3 3 3-3h4c1.1 0 2-.9 2-2v-14c0-1.1-.9-2-2-2zm-7 3.3c1.49 0 2.7 1.21 2.7 2.7s-1.21 2.7-2.7 2.7-2.7-1.21-2.7-2.7 1.21-2.7 2.7-2.7zm6 10.7h-12v-.9c0-2 4-3.1 6-3.1s6 1.1 6 3.1z" fill="#c5cfd6" fill-rule="nonzero"/><path d="m0 0h24v24h-24z"/></g></g></svg>