<svg height="50" viewBox="0 0 50 50" width="50" xmlns="http://www.w3.org/2000/svg"><g fill="none" fill-rule="evenodd"><circle cx="25" cy="25" fill="#f2f2f2" r="25"/><g transform="translate(13 13)"><path d="m0 0h24v24h-24z"/><path d="m16.24 7.76c-1.17-1.17-2.7-1.76-4.24-1.76v6l-4.24 4.24c2.34 2.34 6.14 2.34 8.49 0 2.34-2.34 2.34-6.14-.01-8.48zm-4.24-5.76c-5.52 0-10 4.48-10 10s4.48 10 10 10 10-4.48 10-10-4.48-10-10-10zm0 18c-4.42 0-8-3.58-8-8s3.58-8 8-8 8 3.58 8 8-3.58 8-8 8z" fill="#c5cfd6" fill-rule="nonzero"/></g></g></svg>