<svg height="44" viewBox="0 0 150 44" width="150" xmlns="http://www.w3.org/2000/svg"><g fill="#00d586" fill-rule="evenodd"><path d="m126.547109 0c-10.756327 0-19.506536 8.79331279-19.506536 19.6032092 0 10.8098964 8.750209 19.6029467 19.506536 19.6029467 10.756326 0 19.506535-8.7933128 19.506535-19.6032092 0-10.80989646-8.749948-19.6029467-19.506535-19.6029467zm12.098698 26.7806065 10.89997 10.5259786-6.21059 6.4312542-11.538873-11.1429604c-1.584369.6272124-3.309739.9720354-5.113743.9720354-7.69063 0-13.952592-6.2669502-13.952592-13.9637055 0-7.6967552 6.261962-13.9639672 13.952592-13.9639672 7.690629 0 13.952591 6.2669502 13.952591 13.9637054 0 2.6222561-.72682 5.0785793-1.989355 7.1776595z" fill-rule="nonzero"/><path d="m6.1575179 38.3225806h-6.12171838v-35.50161286h6.12171838zm28.0310263-9.5274193h-17.5059666c.8591885 3.1403226 2.9534606 4.8435484 5.9606205 4.8435484 1.9868735 0 3.8126492-.6919355 5.0477327-1.9693549.2684964-.2129032.6443914-.7983871 1.2350835-1.65l5.1551313 2.1290323c-1.50358 2.5548387-1.9868735 3.0870968-3.4904535 4.3112903-2.2016706 1.7032258-4.9940334 2.6612903-7.947494 2.6612903-6.9272076 0-12.2434368-5.482258-12.2434368-12.6145161 0-7.0258064 5.3162292-12.5612903 12.0286397-12.5612903 5.2088305 0 9.6121718 3.3532258 11.169451 8.4629032.4295943 1.4903226.6443914 2.8741936.6443914 4.683871 0 .3725806 0 .7983871-.0536992 1.7032258zm-17.5059666-4.5241936h11.4379475c-1.0739857-3.3532258-2.8997614-4.95-5.6921241-4.95-2.8997614 0-4.9403342 1.8096775-5.7458234 4.95zm45.3221957 14.0516129h-6.1217184v-1.4903225c-2.2016707 1.65-3.9200477 2.2887096-6.3902148 2.2887096-6.9809069 0-12.5119332-5.5887096-12.5119332-12.6145161 0-6.9725806 5.5310263-12.5612903 12.5119332-12.5612903 2.4701671 0 4.1885441.6387097 6.3902148 2.2887097v-1.4903226h6.1217184zm-12.5119332-18.8951612c-3.7052506 0-6.3365155 2.9274193-6.3365155 7.0790322 0 4.2048387 2.6312649 7.1322581 6.4439141 7.1322581 3.8126491 0 6.3902148-2.9274194 6.3902148-7.1322581 0-4.2580645-2.5775657-7.0790322-6.4976134-7.0790322zm29.4272076 0c-3.9200477 0-6.5513126 2.8741935-6.5513126 7.0790322s2.5238663 7.1322581 6.4439141 7.1322581c4.0811455 0 6.2291169-3.1403226 6.2291169-7.3451613 0-4.1516129-2.4701671-6.866129-6.1217184-6.866129zm12.2971361-16.60645166v23.41935486c0 9.4209677-6.0680191 12.8806451-12.4582339 12.8806451-8.0548926 0-12.5656325-5.8016129-12.5656325-12.8274193 0-7.1854839 5.0477327-12.3483871 12.1897375-12.3483871 4.349642 0 6.7124105 2.2887097 6.7124105 2.2887097v-13.41290326zm11.7064442 11.92258066v23.5790322h-6.1217187v-23.5790322zm-2.9534609-11.76290324c2.0405729 0 3.7589499 1.70322581 3.7589499 3.72580645 0 2.07580645-1.718377 3.72580649-3.8126492 3.72580649-2.1479714 0-3.8663485-1.65000004-3.8663485-3.77903229 0-2.02258065 1.7183771-3.67258065 3.9200478-3.67258065z"/></g></svg>