<svg height="114" viewBox="0 0 1440 114" width="1440" xmlns="http://www.w3.org/2000/svg"><g fill="#fff" fill-rule="evenodd"><path d="m0 49.125c130.666667 23.0347222 245 33.4375 343 31.2083333 74.666667-.117222 136-3.0894443 184-8.9166666 72-8.7408336 179-31.2083334 298-46.8125 119-15.6041667 200-15.6041667 255-15.6041667s247 0 360 36.4351646v68.4320224h-1440z" transform="matrix(-1 0 0 1 1440 0)"/><path d="m0 40.125c130.666667 23.0347222 245 33.4375 343 31.2083333 74.666667-.117222 136-3.0894443 184-8.9166666 72-8.7408336 179-31.2083334 298-46.8125 119-15.6041667 200-15.6041667 255-15.6041667s247 0 360 36.4351646v68.4320224h-1440z" opacity=".608259" transform="matrix(-1 0 0 1 1440 0)"/><path d="m132 40.114803c118.688889 21.3066461 222.541667 30.9290024 311.558333 28.8670689 67.822223-.108428 123.533334-2.8576727 167.133334-8.247734 65.4-8.0850919 162.591666-28.8670689 270.683333-43.3006034s181.66667-14.4335345 231.625-14.4335345 224.35833 0 327 33.7017808v63.2982192h-1308z" opacity=".489676" transform="matrix(-1 0 0 1 1572 0)"/></g></svg>