<svg height="50" viewBox="0 0 50 50" width="50" xmlns="http://www.w3.org/2000/svg"><g fill="none" fill-rule="evenodd"><circle cx="25" cy="25" fill="#f2f2f2" r="25"/><g transform="translate(13 13)"><path d="m0 0h24v24h-24z"/><path d="m18.6666667 10.6666667h-1.3333334v1.3333333h1.3333334zm-6.6666667-4.00000003v-4h-10.66666667v18.66666663h21.33333337v-14.66666663zm-6.66666667 12.00000003h-1.33333333v-1.3333334h1.33333333zm0-4h-1.33333333v-1.3333334h1.33333333zm0-4h-1.33333333v-1.33333337h1.33333333zm0-4.00000003h-1.33333333v-1.33333334h1.33333333zm4 12.00000003h-1.33333333v-1.3333334h1.33333333zm0-4h-1.33333333v-1.3333334h1.33333333zm0-4h-1.33333333v-1.33333337h1.33333333zm0-4.00000003h-1.33333333v-1.33333334h1.33333333zm10.66666667 12.00000003h-8v-9.33333337h8zm-5.3333333-8h-1.3333334v1.3333333h1.3333334zm4 5.3333333h-1.3333334v1.3333333h1.3333334zm-4 0h-1.3333334v1.3333333h1.3333334z" fill="#c5cfd6" fill-rule="nonzero"/></g></g></svg>