<svg height="24" viewBox="0 0 24 24" width="24" xmlns="http://www.w3.org/2000/svg"><path d="m13.7226678 12.3097018c0-.2332592-.0212053-.4559157-.0636161-.6785722h-3.83817423v1.3995552h2.30078403c-.1696431 1.1238853-1.2299122 1.7494441-2.30078403 1.7494441-1.41015793 0-2.53404319-1.166296-2.53404319-2.5658513 0-1.3995552 1.12388526-2.56585125 2.53404319-2.56585125.59375073 0 1.18750143.20145114 1.62221173.62555875l1.1026799-1.07087178c-.7527911-.69977762-1.6964306-1.06026912-2.72489163-1.06026912-2.25837322 0-4.07143342 1.82366289-4.07143342 4.0714334 0 2.2477706 1.8130602 4.0714335 4.07143342 4.0714335 2.34319473 0 3.90179033-1.6540199 3.90179033-3.9760093zm3.6579285.4877238h1.1556934v-1.166296h-1.1556934v-1.166296h-1.166296v1.166296h-1.1662961v1.166296h1.1662961v1.1662961h1.166296zm2.9051374-.583148c0 4.4955411-3.6473258 8.1428669-8.1428669 8.1428669-4.49554102 0-8.1428668-3.6473258-8.1428668-8.1428669 0-4.49554105 3.64732578-8.14286682 8.1428668-8.14286682 4.4955411 0 8.1428669 3.64732577 8.1428669 8.14286682z" fill="#fff"/></svg>