<svg height="24" viewBox="0 0 24 24" width="24" xmlns="http://www.w3.org/2000/svg"><path d="m22.9712289 6.01761204c-.7713644.34204428-1.6011266.57338942-2.471318.67670861.8884808-.53231844 1.5703233-1.37459446 1.892153-2.37987094-.8313665.49317267-1.7525759.85093943-2.732183 1.04378053-.7848408-.83585868-1.9030625-1.35823024-3.1412884-1.35823024-2.3756997 0-4.3025064 1.92680666-4.3025064 4.30250633 0 .33723127.0381832.66547827.1119826.98056972-3.57574241-.17936469-6.74622978-1.89215302-8.86844447-4.49598917-.37028058.63531677-.58269457 1.37491533-.58269457 2.16328568 0 1.49235267.76013405 2.80983279 1.91397198 3.58119724-.70494492-.0221399-1.36881886-.2156227-1.94862562-.53873583-.00032087.01828943-.00032087.03657883-.00032087.05454743 0 2.0846732 1.48368926 3.8234518 3.4515669 4.2184391-.36065457.0988271-.74152376.1511284-1.13330243.1511284-.27787087 0-.54707833-.026632-.80954758-.0766872.54739919 1.7089379 2.13601198 2.9529395 4.01918072 2.987914-1.47277978 1.1541588-3.32771222 1.8417769-5.34404079 1.8417769-.34653642 0-.68986416-.0202146-1.02581197-.060323 1.9030625 1.22122 4.16517523 1.933224 6.59478056 1.933224 7.91386504 0 12.24171984-6.5559557 12.24171984-12.24204074 0-.18642376-.0041713-.37220578-.0125138-.55638347.8413134-.60643873 1.5706442-1.36400585 2.1472423-2.22681735z" fill="#fff"/></svg>